<svg width="121" height="25" viewBox="0 0 121 25" fill="none" xmlns="http://www.w3.org/2000/svg">
<path d="M10.8603 4.88836C11.994 2.78895 15.006 2.78896 16.1397 4.88836L24.6103 20.5746C25.6896 22.5734 24.2421 25 21.9705 25H5.02946C2.75786 25 1.31039 22.5733 2.38974 20.5746L10.8603 4.88836Z" fill="#EB5757"/>
<path d="M52.1781 13.5056L49.3342 23.8517H45.7746L44.1173 17.1397L42.4034 23.8517H38.8627L36 13.5056H39.2205L40.7084 20.9036L42.4788 13.5056H45.8876L47.6768 20.8665L49.1459 13.5056H52.1781Z" fill="#EB5757"/>
<path d="M55.0259 12.4302C54.4609 12.4302 53.9963 12.2695 53.6322 11.9481C53.2807 11.6143 53.1049 11.2064 53.1049 10.7244C53.1049 10.2299 53.2807 9.822 53.6322 9.50062C53.9963 9.16687 54.4609 9 55.0259 9C55.5784 9 56.0304 9.16687 56.3819 9.50062C56.746 9.822 56.9281 10.2299 56.9281 10.7244C56.9281 11.2064 56.746 11.6143 56.3819 11.9481C56.0304 12.2695 55.5784 12.4302 55.0259 12.4302ZM56.6268 13.5056V23.8517H53.4062V13.5056H56.6268Z" fill="#EB5757"/>
<path d="M65.3641 13.3943C66.5945 13.3943 67.5739 13.7899 68.3021 14.581C69.0429 15.3597 69.4133 16.4351 69.4133 17.8072V23.8517H66.2116V18.2336C66.2116 17.5414 66.0295 17.0037 65.6654 16.6205C65.3013 16.2373 64.8116 16.0457 64.1964 16.0457C63.5812 16.0457 63.0915 16.2373 62.7274 16.6205C62.3633 17.0037 62.1812 17.5414 62.1812 18.2336V23.8517H58.9607V13.5056H62.1812V14.8776C62.5077 14.4203 62.9471 14.0618 63.4996 13.8022C64.052 13.5303 64.6735 13.3943 65.3641 13.3943Z" fill="#EB5757"/>
<path d="M71.0109 18.6601C71.0109 17.597 71.2118 16.6638 71.6136 15.8603C72.0279 15.0569 72.5867 14.4388 73.2898 14.0062C73.9929 13.5735 74.7776 13.3572 75.644 13.3572C76.3346 13.3572 76.9623 13.4994 77.5273 13.7837C78.1049 14.068 78.5569 14.4512 78.8834 14.9333V10.131H82.1039V23.8517H78.8834V22.3684C78.582 22.8628 78.1489 23.2583 77.5839 23.555C77.0314 23.8517 76.3848 24 75.644 24C74.7776 24 73.9929 23.7837 73.2898 23.351C72.5867 22.9061 72.0279 22.2818 71.6136 21.4784C71.2118 20.6625 71.0109 19.7231 71.0109 18.6601ZM78.8834 18.6786C78.8834 17.8875 78.6574 17.2633 78.2054 16.8059C77.7659 16.3486 77.226 16.1199 76.5857 16.1199C75.9453 16.1199 75.3992 16.3486 74.9471 16.8059C74.5077 17.2509 74.288 17.869 74.288 18.6601C74.288 19.4512 74.5077 20.0816 74.9471 20.5513C75.3992 21.0087 75.9453 21.2373 76.5857 21.2373C77.226 21.2373 77.7659 21.0087 78.2054 20.5513C78.6574 20.0939 78.8834 19.4697 78.8834 18.6786Z" fill="#EB5757"/>
<path d="M87.6544 14.9703C87.9557 14.4883 88.3889 14.0989 88.9539 13.8022C89.5189 13.5056 90.1655 13.3572 90.8938 13.3572C91.7601 13.3572 92.5448 13.5735 93.248 14.0062C93.9511 14.4388 94.5035 15.0569 94.9053 15.8603C95.3197 16.6638 95.5268 17.597 95.5268 18.6601C95.5268 19.7231 95.3197 20.6625 94.9053 21.4784C94.5035 22.2818 93.9511 22.9061 93.248 23.351C92.5448 23.7837 91.7601 24 90.8938 24C90.153 24 89.5064 23.8578 88.9539 23.5735C88.4014 23.2769 87.9683 22.8875 87.6544 22.4054V23.8517H84.4338V10.131H87.6544V14.9703ZM92.2498 18.6601C92.2498 17.869 92.0238 17.2509 91.5718 16.8059C91.1323 16.3486 90.5861 16.1199 89.9332 16.1199C89.2929 16.1199 88.7467 16.3486 88.2947 16.8059C87.8553 17.2633 87.6355 17.8875 87.6355 18.6786C87.6355 19.4697 87.8553 20.0939 88.2947 20.5513C88.7467 21.0087 89.2929 21.2373 89.9332 21.2373C90.5736 21.2373 91.1198 21.0087 91.5718 20.5513C92.0238 20.0816 92.2498 19.4512 92.2498 18.6601Z" fill="#EB5757"/>
<path d="M103.62 13.3943C104.85 13.3943 105.83 13.7899 106.558 14.581C107.299 15.3597 107.669 16.4351 107.669 17.8072V23.8517H104.467V18.2336C104.467 17.5414 104.285 17.0037 103.921 16.6205C103.557 16.2373 103.067 16.0457 102.452 16.0457C101.837 16.0457 101.347 16.2373 100.983 16.6205C100.619 17.0037 100.437 17.5414 100.437 18.2336V23.8517H97.2164V13.5056H100.437V14.8776C100.763 14.4203 101.203 14.0618 101.755 13.8022C102.308 13.5303 102.929 13.3943 103.62 13.3943Z" fill="#EB5757"/>
<path d="M113.128 14.9703C113.429 14.4883 113.862 14.0989 114.427 13.8022C114.992 13.5056 115.639 13.3572 116.367 13.3572C117.233 13.3572 118.018 13.5735 118.721 14.0062C119.424 14.4388 119.977 15.0569 120.378 15.8603C120.793 16.6638 121 17.597 121 18.6601C121 19.7231 120.793 20.6625 120.378 21.4784C119.977 22.2818 119.424 22.9061 118.721 23.351C118.018 23.7837 117.233 24 116.367 24C115.626 24 114.98 23.8578 114.427 23.5735C113.875 23.2769 113.441 22.8875 113.128 22.4054V23.8517H109.907V10.131H113.128V14.9703ZM117.723 18.6601C117.723 17.869 117.497 17.2509 117.045 16.8059C116.605 16.3486 116.059 16.1199 115.406 16.1199C114.766 16.1199 114.22 16.3486 113.768 16.8059C113.328 17.2633 113.109 17.8875 113.109 18.6786C113.109 19.4697 113.328 20.0939 113.768 20.5513C114.22 21.0087 114.766 21.2373 115.406 21.2373C116.047 21.2373 116.593 21.0087 117.045 20.5513C117.497 20.0816 117.723 19.4512 117.723 18.6601Z" fill="#EB5757"/>
</svg>
